:version 1.10
:name ASF
:units
  mass 1
  length 1
  angle deg
:documentation
  ASF file generated by Kaydara
:root
  axis xyz
  order  tx ty tz rx ry rz
  position 0 0 0
  orientation 0 0 0
:bonedata
  begin
    id 1
    name RightUpLegDummy
    direction -1 2.30186e-007 8.31532e-007
    length 4.04083
    axis 0 0 0 xyz
  end
  begin
    id 2
    name RightUpLeg
    direction -0.000919234 -0.999985 0.00544864
    length 17.4221
    axis -3.80308 -0.00076134 -0.0523649 xyz
    dof rx ry rz
  end
  begin
    id 3
    name RightLeg
    direction -0.000919271 -0.999984 -0.00555045
    length 17.1239
    axis 4.00314 0.0181274 -0.183583 xyz
    dof rx ry rz
  end
  begin
    id 4
    name RightFoot
    direction -2.57843e-005 -4.04509e-007 1
    length 6.72091
    axis 8.18909e-005 -0.122003 -0.403008 xyz
    dof rx ry rz
  end
  begin
    id 5
    name RightToes
    direction 0.00116825 -0.014069 0.9999
    length 3.85082
    axis 0.000514414 0.540638 -0.356797 xyz
    dof rx ry rz
  end
  begin
    id 6
    name SpineDummy
    direction 0.0168869 0.966876 -0.254689
    length 6.99894
    axis 0 0 0 xyz
  end
  begin
    id 7
    name Spine
    direction -0.0132008 0.999903 0.00446247
    length 11.1999
    axis -0.00148109 0.00725429 0.756411 xyz
    dof rx ry rz
  end
  begin
    id 8
    name Spine1
    direction 0 0 0
    length 0
    axis -0.000934958 0.0245693 1.46543 xyz
    dof rx ry rz
  end
  begin
    id 9
    name HEadDummy
    direction -0.0255732 0.999672 0.00128215
    length 3.43865
    axis -0.000934958 0.0245693 1.46543 xyz
  end
  begin
    id 10
    name HEad
    direction -0.0472656 0.980052 0.19304
    length 5.12695
    axis -0.000934954 0.0245693 1.46543 xyz
    dof rx ry rz
  end
  begin
    id 11
    name LeftShoulder1Dummy
    direction 0.953098 0.301717 -0.023914
    length 3.68488
    axis -0.000934958 0.0245693 1.46543 xyz
  end
  begin
    id 12
    name LeftShoulder1
    direction 0.962466 0.271167 0.0112566
    length 3.13809
    axis -0.000934958 0.0245693 1.46543 xyz
    dof rx ry rz
  end
  begin
    id 13
    name LeftArm
    direction 0.999943 0.00455037 -0.00961766
    length 11.3419
    axis -23.1648 0.685459 1.22814 xyz
    dof rx ry rz
  end
  begin
    id 14
    name LeftForeArm
    direction 0.999332 0.0131969 0.0340885
    length 8.70632
    axis -9.90633 0.618216 0.0826942 xyz
    dof rx ry rz
  end
  begin
    id 15
    name LeftHand
    direction 0.994373 -0.0366703 0.0993905
    length 5.32135
    axis 0.00675269 0.680415 0.445699 xyz
    dof rx ry rz
  end
  begin
    id 16
    name RightShoulderDummy
    direction -0.967298 0.252589 -0.0230903
    length 3.68488
    axis -0.000934958 0.0245693 1.46543 xyz
  end
  begin
    id 17
    name RightShoulder
    direction -0.975062 0.221602 0.0120823
    length 3.13809
    axis 0.216257 0.0246515 1.45863 xyz
    dof rx ry rz
  end
  begin
    id 18
    name RightArm
    direction -0.99886 -0.00851186 -0.0469687
    length 10.3947
    axis -23.196 0.23503 -0.532632 xyz
    dof rx ry rz
  end
  begin
    id 19
    name RightForeArm
    direction -0.99909 0.00114866 0.0426317
    length 8.68355
    axis -9.91764 -0.134943 0.610517 xyz
    dof rx ry rz
  end
  begin
    id 20
    name RightHand
    direction -0.992888 -0.0489538 0.10852
    length 5.28593
    axis -0.00275396 -0.197403 0.246414 xyz
    dof rx ry rz
  end
  begin
    id 21
    name LeftUpLegDummy
    direction 1 -2.30186e-007 -8.31532e-007
    length 4.04083
    axis 0 0 0 xyz
  end
  begin
    id 22
    name LeftUpLeg
    direction -0.000920097 -1 2.79241e-006
    length 17.4221
    axis -3.48782 0.00143434 -0.0532288 xyz
    dof rx ry rz
  end
  begin
    id 23
    name LeftLeg
    direction -0.000920097 -1 2.7912e-006
    length 17.1239
    axis 3.68162 -0.00806512 -0.0529896 xyz
    dof rx ry rz
  end
  begin
    id 24
    name LeftFoot
    direction -2.57845e-005 -3.987e-007 1
    length 6.72091
    axis 3.02372e-005 -0.00147829 -0.214229 xyz
    dof rx ry rz
  end
  begin
    id 25
    name LeftToes
    direction 0.00813577 -0.00488255 0.999955
    length 3.85048
    axis 3.89895e-005 -0.0014783 -0.214229 xyz
    dof rx ry rz
  end
:hierarchy
  begin
    root RightUpLegDummy SpineDummy LeftUpLegDummy
    RightUpLegDummy RightUpLeg
    RightUpLeg RightLeg
    RightLeg RightFoot
    RightFoot RightToes
    SpineDummy Spine
    Spine Spine1
    Spine1 HEadDummy LeftShoulder1Dummy RightShoulderDummy
    HEadDummy HEad
    LeftShoulder1Dummy LeftShoulder1
    LeftShoulder1 LeftArm
    LeftArm LeftForeArm
    LeftForeArm LeftHand
    RightShoulderDummy RightShoulder
    RightShoulder RightArm
    RightArm RightForeArm
    RightForeArm RightHand
    LeftUpLegDummy LeftUpLeg
    LeftUpLeg LeftLeg
    LeftLeg LeftFoot
    LeftFoot LeftToes
  end

:SAMPLES-PER-SECOND 30
:FULLY-SPECIFIED
:DEGREES
47
root  -4.51903 34.5855 -32.8188 -171.27 -2.95311 -178.607
RightUpLeg  -7.28886 -19.6383 -0.645615
RightLeg  5.55117 -4.91898 -0.158527
RightFoot  5.64774 0.0454879 -0.322831
RightToes  -26.5332 -0.119505 -0.224931
Spine  -2.20921 0.0308742 0.300968
Spine1  -4.47778 0.134417 1.12941
HEad  -63.0504 -1.30392 7.77213
LeftShoulder1  -1.94126e-019 -3.10601e-018 -2.51263e-017
LeftArm  -16.3227 25.9005 -79.1067
LeftForeArm  35.2345 -12.0285 -2.01775
LeftHand  -0.50672 -1.37411 8.84378
RightShoulder  -4.96962e-017 0 -2.36833e-017
RightArm  -34.6532 -23.9004 70.8986
RightForeArm  57.7417 14.0811 1.22406
RightHand  -0.451461 0.0287978 -9.71971
LeftUpLeg  -8.16805 2.57201 8.71166
LeftLeg  4.89044 10.4308 0.218172
LeftFoot  9.48867 -0.133323 1.82519
LeftToes  -29.5625 2.25955e-006 -3.67304e-008
48
root  -4.53224 34.5834 -32.8201 -171.237 -3.0743 -178.616
RightUpLeg  -7.44031 -19.6188 -0.659263
RightLeg  5.83054 -5.05759 -0.187636
RightFoot  5.50739 0.0446672 -0.317976
RightToes  -26.4762 -0.119176 -0.224551
Spine  -2.22875 0.0991397 0.292421
Spine1  -4.51609 0.285953 1.12315
HEad  -63.0226 -1.01696 7.76124
LeftShoulder1  -1.94126e-019 -3.10601e-018 -2.51263e-017
LeftArm  -16.5738 26.4215 -79.1115
LeftForeArm  35.2936 -11.8629 -1.99579
LeftHand  -0.504646 -1.27193 8.89413
RightShoulder  -4.96962e-017 0 -2.36833e-017
RightArm  -34.0556 -23.7872 71.1368
RightForeArm  57.3199 14.3677 1.18885
RightHand  -0.440622 -0.074614 -9.66218
LeftUpLeg  -8.27149 2.46385 8.69186
LeftLeg  4.97753 10.4174 0.233635
LeftFoot  9.433 -0.133095 1.81719
LeftToes  -29.5472 2.25955e-006 -3.67304e-008
49
root  -4.54861 34.5829 -32.823 -171.216 -3.11511 -178.62
RightUpLeg  -7.59493 -19.5006 -0.678501
RightLeg  6.13036 -5.22179 -0.221041
RightFoot  5.32393 0.0437686 -0.311359
RightToes  -26.2922 -0.118872 -0.224253
Spine  -2.21221 0.147128 0.291179
Spine1  -4.48118 0.396303 1.13164
HEad  -63.0805 -0.608193 7.73553
LeftShoulder1  -1.94126e-019 -3.10601e-018 -2.51263e-017
LeftArm  -16.7556 26.8059 -79.1517
LeftForeArm  35.3622 -11.7822 -1.987
LeftHand  -0.503548 -1.29235 8.9041
RightShoulder  -4.96962e-017 0 -2.36833e-017
RightArm  -33.5574 -23.5881 71.402
RightForeArm  57.0087 14.678 1.15066
RightHand  -0.443937 -0.0387817 -9.67281
LeftUpLeg  -8.3046 2.34747 8.66862
LeftLeg  4.9975 10.4939 0.238976
LeftFoot  9.41023 -0.13418 1.83078
LeftToes  -29.5621 2.25955e-006 -3.67304e-008
50
root  -4.56426 34.5832 -32.8289 -171.179 -3.12189 -178.65
RightUpLeg  -7.72961 -19.3963 -0.718373
RightLeg  6.35412 -5.3562 -0.247645
RightFoot  5.16401 0.0429047 -0.304411
RightToes  -26.1725 -0.118588 -0.224043
Spine  -2.2019 0.169489 0.278758
Spine1  -4.45886 0.4526 1.11668
HEad  -63.136 -0.08237 7.81803
LeftShoulder1  -1.94126e-019 -3.10601e-018 -2.51263e-017
LeftArm  -16.7815 27.1209 -79.1681
LeftForeArm  35.4334 -11.7714 -1.98571
LeftHand  -0.502065 -1.2729 8.89923
RightShoulder  -4.96962e-017 0 -2.36833e-017
RightArm  -33.0619 -23.3769 71.6895
RightForeArm  56.7386 14.9454 1.12033
RightHand  -0.444918 -0.0405954 -9.69116
LeftUpLeg  -8.31317 2.32456 8.61312
LeftLeg  4.96375 10.5121 0.233229
LeftFoot  9.40142 -0.13468 1.83661
LeftToes  -29.5604 2.25955e-006 -3.67304e-008
51
root  -4.58033 34.5839 -32.8433 -171.158 -3.13062 -178.674
RightUpLeg  -7.75001 -19.1927 -0.763118
RightLeg  6.40988 -5.58142 -0.263478
RightFoot  5.12778 0.0435139 -0.317513
RightToes  -26.0305 -0.118317 -0.223926
Spine  -2.18482 0.177843 0.278125
Spine1  -4.4238 0.477817 1.12223
HEad  -63.1682 0.353405 7.84886
LeftShoulder1  -1.94126e-019 -3.10601e-018 -2.51263e-017
LeftArm  -16.7176 27.2449 -79.1984
LeftForeArm  35.4988 -11.732 -1.98129
LeftHand  -0.502435 -1.31881 8.85147
RightShoulder  -4.96962e-017 0 -2.36833e-017
RightArm  -32.749 -23.1668 71.9494
RightForeArm  56.6487 15.1438 1.09784
RightHand  -0.448626 -0.00655133 -9.61125
LeftUpLeg  -8.29741 2.32776 8.56525
LeftLeg  4.93426 10.4974 0.227534
LeftFoot  9.37432 -0.134499 1.8334
LeftToes  -29.5279 2.25955e-006 -3.67304e-008
52
root  -4.59838 34.5849 -32.8663 -171.128 -3.16161 -178.7
RightUpLeg  -7.6907 -19.0843 -0.81923
RightLeg  6.32292 -5.7255 -0.26158
RightFoot  5.17517 0.0443792 -0.333095
RightToes  -26.1071 -0.118053 -0.223905
Spine  -2.16888 0.166756 0.283565
Spine1  -4.39199 0.460247 1.13774
HEad  -63.1458 0.717138 7.957
LeftShoulder1  -1.94126e-019 -3.10601e-018 -2.51263e-017
LeftArm  -16.7243 27.2357 -79.2547
LeftForeArm  35.5493 -11.7498 -1.98304
LeftHand  -0.500032 -1.28186 8.9063
RightShoulder  -4.96962e-017 0 -2.36833e-017
RightArm  -32.4765 -22.9994 72.1718
RightForeArm  56.4875 15.2739 1.08614
RightHand  -0.449831 0.0159609 -9.60904
LeftUpLeg  -8.27235 2.28067 8.51488
LeftLeg  4.89328 10.5159 0.220455
LeftFoot  9.33532 -0.134207 1.83016
LeftToes  -29.4379 2.25955e-006 -3.67304e-008
